# xmcd
#
# Track frame offsets:
#	150
#	11536
#	23636
#	34373
#	48298
#	60206
#	70678
#	80257
#	91801
#	104237
#	118062
#	129494
#	139659
#	151480
#	164335
#	175882
#	188426
#	198690
#	209540
#	219415
#	230212
#	242468
#	256550
#	266675
#
# Disc length: 3694 seconds
# Revision: 3
# Processed by: cddbd v1.5.2PL0 Copyright (c) Steve Scherf et al.
# Submitted via: dBpowerAMP V12.0
#
DISCID=480e6c18
DTITLE=Various Artist - The Other Side of The Trax - Stax-Volt 45rpm Rarities 1964-1968
DYEAR=2016
DGENRE=Soul
TTITLE0=Johnnie Taylor - Changes
TTITLE1=Carla Thomas - Separation
TTITLE2=Ivory Joe Hunter - This Kind of Woman
TTITLE3=Rufus Thomas - Sho' Gonna Mess Him up
TTITLE4=Barbara and The Browns - You Belong to Her
TTITLE5=William Bell - Don't Stop Now
TTITLE6=Mar‐Keys - Beach Bash
TTITLE7=Eddie Purrell - My Pride Won't Let me
TTITLE8=Johnny Daye - I Need Somebody
TTITLE9=Eddie Jefferson - Uh-oh (I'm in Love Again)
TTITLE10=Dorothy Williams - Watchdog
TTITLE11=Oscar Mack - You'll Never Know How Much I Love You
TTITLE12=Barbara and The Browns - Please be Honest With me
TTITLE13=William Bell - Ain't Got no Girl
TTITLE14=Carla Thomas - A Boy Named Tom
TTITLE15=Gorgeous George - Sweet Thing
TTITLE16=Eddie Floyd - Hey Now
TTITLE17=Sir Isaac and The Do-Dads - The Big Dipper
TTITLE18=Rufus and Carla Thomas - We're Tight
TTITLE19=Sir Mack Rice - I Gotta Have my Baby's Love
TTITLE20=Eddie Floyd - Under my Nose
TTITLE21=Johnny Jenkins - Bashful Guitar
TTITLE22=Linda Lyndell - Here I am
TTITLE23=Johnnie Taylor - Strange Things (Happenin' in my Heart)
EXTD=
EXTT0=
EXTT1=
EXTT2=
EXTT3=
EXTT4=
EXTT5=
EXTT6=
EXTT7=
EXTT8=
EXTT9=
EXTT10=
EXTT11=
EXTT12=
EXTT13=
EXTT14=
EXTT15=
EXTT16=
EXTT17=
EXTT18=
EXTT19=
EXTT20=
EXTT21=
EXTT22=
EXTT23=
PLAYORDER=
